<?xml version="1.0" standalone="no"?>
<!DOCTYPE svg PUBLIC "-//W3C//DTD SVG 20010904//EN"
 "http://www.w3.org/TR/2001/REC-SVG-20010904/DTD/svg10.dtd">
<svg version="1.0" xmlns="http://www.w3.org/2000/svg"
 width="512.000000pt" height="512.000000pt" viewBox="0 0 512.000000 512.000000"
 preserveAspectRatio="xMidYMid meet">
<metadata>
Created by potrace 1.14, written by Peter Selinger 2001-2017
</metadata>
<g transform="translate(0.000000,512.000000) scale(0.100000,-0.100000)"
fill="#000000" stroke="none">
<path d="M2439 5105 c-129 -32 -250 -105 -364 -219 -94 -94 -123 -131 -210
-261 -140 -209 -259 -468 -350 -760 -43 -137 -38 -116 -73 -289 l-28 -138 -58
-29 c-106 -53 -182 -124 -248 -231 -38 -61 -73 -145 -82 -193 -3 -13 -7 -29
-10 -34 -4 -5 -9 -56 -13 -114 -6 -109 7 -236 32 -308 l14 -39 -227 -1 c-258
-1 -259 -1 -328 -34 -101 -49 -169 -146 -182 -258 -12 -107 0 -206 32 -261 32
-54 98 -101 157 -111 l39 -7 0 -71 c4 -1116 7 -1263 22 -1307 75 -218 213
-354 423 -418 44 -13 99 -19 207 -21 156 -3 161 -2 193 53 8 14 29 17 123 19
89 3 112 0 112 -10 0 -8 11 -25 25 -39 l24 -24 1188 0 c1315 0 1250 -3 1389
66 136 67 238 183 297 338 l31 81 3 570 c2 314 3 613 3 666 l0 96 39 7 c61 9
132 64 164 127 25 49 28 64 28 159 0 114 -13 166 -57 234 -34 51 -68 81 -129
111 -67 33 -68 33 -326 34 l-226 1 19 68 c29 98 33 300 7 405 -51 210 -164
361 -335 446 l-61 30 -13 78 c-38 242 -163 614 -286 855 -49 95 -75 120 -115
113 -23 -4 -32 4 -83 81 -56 84 -57 87 -43 116 8 17 12 38 10 48 -6 24 -110
146 -159 187 -22 18 -51 43 -67 56 -136 115 -353 171 -508 132z"/>
</g>
</svg>
